<?xml version="1.0" encoding="UTF-8"?>
<svg version="1.1" xmlns="http://www.w3.org/2000/svg" width="740" height="740">
<path d="M0 0 C1.14082031 0.47493896 1.14082031 0.47493896 2.3046875 0.95947266 C27.88146984 11.72031139 51.30366046 26.49414895 72 45 C77.26162046 40.69503781 82.02915347 36.03587598 86.73535156 31.13964844 C90.98087089 26.79429979 93.76804252 24.72012395 99.875 24.625 C104.68401017 24.73815318 107.35414962 25.70137347 111 29 C114.46699319 33.42771164 115.69386768 37.07382748 116.1171875 42.58203125 C116.1889621 43.34626907 116.26073669 44.1105069 116.33468628 44.89790344 C116.5789313 47.59716739 116.7916664 50.29773067 117 53 C117.12646912 54.58479156 117.12646912 54.58479156 117.25549316 56.20159912 C117.82776135 63.4315829 118.35434521 70.66423664 118.85986328 77.89916992 C119.12719978 81.71893098 119.40111404 85.53818163 119.67578125 89.35742188 C119.8493434 91.80466022 120.02253409 94.25192495 120.1953125 96.69921875 C120.27653351 97.83155441 120.35775452 98.96389008 120.44143677 100.13053894 C121.57966902 116.55659576 121.57966902 116.55659576 118 123 C114.23307939 127.12567496 111.42208302 128.41006593 105.90948486 128.90588379 C99.39638648 129.11656993 92.89281412 128.55829197 86.3984375 128.109375 C84.79141424 128.00269601 83.18436829 127.89635834 81.57730103 127.79034424 C78.22333678 127.56705465 74.86986586 127.33756017 71.51660156 127.10400391 C67.23281374 126.80643799 62.94803319 126.52768725 58.66266441 126.25396347 C55.34881385 126.03964505 52.03583009 125.81370783 48.7229805 125.58448029 C47.14369613 125.47689949 45.56413819 125.37325545 43.98432541 125.27373505 C41.77287271 125.13300065 39.56310319 124.97618362 37.35302734 124.81542969 C36.09888031 124.73025085 34.84473328 124.64507202 33.55258179 124.55731201 C28.45026028 123.75688426 23.3678839 122.29402558 20.125 118 C16.93910176 113.50226131 16.29201117 109.41461881 17 104 C18.68543209 99.30968327 21.40130245 96.40455701 25.3515625 93.38671875 C28.00399957 91.1554032 30.15250006 88.50716084 32.38671875 85.8671875 C33.85919783 84.16296232 35.38636694 82.56975784 37 81 C1.50713916 50.74110942 -44.16593549 32.34985399 -91 31 C-92.04929687 30.96003906 -93.09859375 30.92007813 -94.1796875 30.87890625 C-149.73768925 29.76774622 -203.18710468 51.97328321 -243.21875 90.03515625 C-282.39400078 127.98675403 -303.59182056 180.96467881 -304.9609375 235.03515625 C-305.62288362 285.1810957 -288.61516396 335.3533878 -255 373 C-254.56059082 373.49290527 -254.12118164 373.98581055 -253.66845703 374.49365234 C-250.49317059 378.04159925 -247.26291899 381.53252493 -244 385 C-243.38382812 385.65871094 -242.76765625 386.31742187 -242.1328125 386.99609375 C-208.53365522 421.80096241 -156.44881965 443.44175308 -108.4453125 444.3359375 C-105.0049585 444.3765799 -101.56556083 444.38284792 -98.125 444.375 C-97.22503296 444.37445618 -96.32506592 444.37391235 -95.39782715 444.37335205 C-80.5982342 444.33235686 -66.45576216 443.42311189 -52 440 C-51.10555176 439.79101074 -50.21110352 439.58202148 -49.28955078 439.36669922 C2.35528775 426.86064817 49.44542219 393.71051541 77.31640625 348.30078125 C79.29494987 344.90512028 81.17255132 341.47918114 83 338 C83.32806641 337.37947754 83.65613281 336.75895508 83.99414062 336.11962891 C86.44043515 331.4644193 88.76262222 326.75899387 91 322 C91.45439453 321.03682861 91.45439453 321.03682861 91.91796875 320.05419922 C96.09580136 311.02579349 99.10675618 301.77233361 101.75 292.1875 C102.03174072 291.18154785 102.31348145 290.1755957 102.60375977 289.13916016 C106.79239461 273.28709598 108.51227631 257.43597615 108.39111328 241.07275391 C108.37499867 238.49978693 108.39110481 235.92838966 108.41015625 233.35546875 C108.4308354 217.21787772 106.22560644 201.56883881 102.1875 185.94921875 C101.14000559 181.62433655 100.596845 178.26892071 102 174 C105.55474464 169.81823508 108.66792938 168.02013903 113.83984375 166.2890625 C114.48442032 166.07180511 115.12899689 165.85454773 115.79310608 165.63070679 C117.14797605 165.17828074 118.50534481 164.73327576 119.86499023 164.29541016 C121.93529147 163.62571441 123.99369013 162.92610372 126.05273438 162.22265625 C127.37700216 161.78463407 128.70185484 161.34837546 130.02734375 160.9140625 C131.81773071 160.3255249 131.81773071 160.3255249 133.64428711 159.72509766 C138.43660542 158.68958035 141.59543474 159.12289595 145.74609375 161.71484375 C149.87254524 165.89850774 150.63342507 171.43530688 152 177 C152.16886719 177.66386719 152.33773438 178.32773437 152.51171875 179.01171875 C160.11168841 209.46874001 161.24925311 241.95181222 157 273 C156.87641113 273.90492188 156.75282227 274.80984375 156.62548828 275.7421875 C149.46654887 325.86344085 127.17214418 372.39576176 93.09375 409.68359375 C91.29965017 411.66848405 89.58598419 413.69420011 87.875 415.75 C78.21123773 426.79748805 66.72488807 436.23870327 55 445 C53.77990234 445.91458984 53.77990234 445.91458984 52.53515625 446.84765625 C12.57891262 475.73909395 -36.61102274 493.35036817 -86 495 C-86.81146484 495.02723145 -87.62292969 495.05446289 -88.45898438 495.08251953 C-134.01947538 496.38635648 -178.78283475 486.48838446 -219 465 C-219.98129883 464.48034668 -219.98129883 464.48034668 -220.98242188 463.95019531 C-235.7181898 456.09351514 -249.30089113 446.85424538 -262 436 C-263.1204513 435.0643343 -264.24158217 434.12948196 -265.36328125 433.1953125 C-277.05042846 423.40107464 -287.60805999 413.05784142 -297 401 C-297.99583526 399.7563034 -298.99194703 398.51282817 -299.98828125 397.26953125 C-332.79837762 355.86714458 -353.8056105 303.12436764 -355 250 C-355.02046387 249.11586426 -355.04092773 248.23172852 -355.06201172 247.32080078 C-355.88400677 205.95610771 -348.61922123 166.59815959 -331 129 C-330.6596875 128.27103516 -330.319375 127.54207031 -329.96875 126.79101562 C-322.78341721 111.56428501 -314.08939128 97.46519363 -304 84 C-303.57493164 83.42926758 -303.14986328 82.85853516 -302.71191406 82.27050781 C-292.26340178 68.33129617 -280.30612936 54.49460156 -266.6875 43.5625 C-265.74003906 42.80066406 -264.79257812 42.03882813 -263.81640625 41.25390625 C-262.42228516 40.13822266 -262.42228516 40.13822266 -261 39 C-260.18402344 38.32839844 -259.36804688 37.65679687 -258.52734375 36.96484375 C-247.38760228 27.85380317 -235.44775853 20.16985672 -223 13 C-221.8759375 12.34257813 -220.751875 11.68515625 -219.59375 11.0078125 C-153.91835087 -25.82366134 -69.05828744 -29.03436172 0 0 Z " fill="#1F2C39" transform="translate(468,109)"/>
<path d="M0 0 C7.53579518 4.27927913 10.60230039 13.79102602 14.125 21.3125 C14.60171143 22.31933838 15.07842285 23.32617676 15.56958008 24.36352539 C17.00952901 27.40677579 18.44303437 30.45298637 19.875 33.5 C21.07070052 36.03859285 22.26734284 38.57673066 23.46582031 41.11401367 C24.15619148 42.57667226 24.84462293 44.04024952 25.53027344 45.50512695 C27.77390964 50.27090046 30.11020876 54.9875338 32.47265625 59.6953125 C37.12168158 68.96086264 41.6815542 78.26943462 46.23095703 87.58422852 C47.63534723 90.4586783 49.04225109 93.33188923 50.44921875 96.20507812 C51.35692393 98.06242519 52.26448134 99.91984448 53.171875 101.77734375 C53.58548279 102.62127182 53.99909058 103.46519989 54.42523193 104.33470154 C61.875 119.61106419 61.875 119.61106419 61.875 122.5 C68.77654091 119.74449426 75.67751906 116.98758266 82.578125 114.22973633 C84.92109744 113.29354724 87.26419409 112.35766893 89.60742188 111.42211914 C92.99382454 110.0700099 96.37976491 108.71674851 99.765625 107.36328125 C100.79737854 106.95161209 101.82913208 106.53994293 102.89215088 106.11579895 C109.05981935 103.64882472 115.19626147 101.11959649 121.30950928 98.52043152 C127.07893883 96.22562386 131.35426924 96.02633772 137.01171875 98.41015625 C141.03230904 100.76182227 143.40353728 104.08561185 144.875 108.5 C145.2434431 114.11875724 145.06690228 117.65711379 141.875 122.5 C138.54261419 125.46571553 135.39434878 127.34826473 131.2734375 129.0234375 C130.16033203 129.48032959 129.04722656 129.93722168 127.90039062 130.40795898 C126.69576172 130.89208252 125.49113281 131.37620605 124.25 131.875 C122.97826937 132.39270604 121.70679048 132.91103085 120.43554688 133.42993164 C116.98824885 134.83367484 113.53619312 136.22530601 110.08239746 137.61297607 C107.82030826 138.52197741 105.5590168 139.4329412 103.29785156 140.34423828 C93.80454742 144.1683055 84.307175 147.98228103 74.7878418 151.7411499 C72.90575615 152.48779862 71.02794947 153.24449398 69.15039062 154.00244141 C68.00763672 154.4566748 66.86488281 154.9109082 65.6875 155.37890625 C64.19669922 155.97747437 64.19669922 155.97747437 62.67578125 156.58813477 C57.29838124 158.33888346 52.31849515 158.47739806 47.0625 156.375 C41.30018021 151.43586875 38.35379302 145.85662961 35.25 139.0625 C34.29099964 137.01081218 33.32989278 134.96010824 32.3671875 132.91015625 C31.82545898 131.75402832 31.28373047 130.59790039 30.72558594 129.40673828 C27.43310076 122.42514544 24.01985284 115.50114012 20.62960815 108.56668091 C14.68989198 96.41519277 8.76975044 84.25555417 2.95849609 72.04199219 C0.27304938 66.40453251 -2.43929124 60.78068838 -5.16796875 55.1640625 C-5.52455063 54.42991119 -5.88113251 53.69575989 -6.2485199 52.93936157 C-8.01608473 49.30118167 -9.78551232 45.66392158 -11.55737305 42.02783203 C-24.34878789 15.74726384 -24.34878789 15.74726384 -22.0625 7.8125 C-17.17135187 -0.54978551 -9.24737218 -3.96815403 0 0 Z " fill="#D83B47" transform="translate(315.125,204.5)"/>
<path d="M0 0 C1.14082031 0.47493896 1.14082031 0.47493896 2.3046875 0.95947266 C27.88146984 11.72031139 51.30366046 26.49414895 72 45 C77.26162046 40.69503781 82.02915347 36.03587598 86.73535156 31.13964844 C90.98087089 26.79429979 93.76804252 24.72012395 99.875 24.625 C104.68401017 24.73815318 107.35414962 25.70137347 111 29 C114.46699319 33.42771164 115.69386768 37.07382748 116.1171875 42.58203125 C116.1889621 43.34626907 116.26073669 44.1105069 116.33468628 44.89790344 C116.5789313 47.59716739 116.7916664 50.29773067 117 53 C117.12646912 54.58479156 117.12646912 54.58479156 117.25549316 56.20159912 C117.82776135 63.4315829 118.35434521 70.66423664 118.85986328 77.89916992 C119.12719978 81.71893098 119.40111404 85.53818163 119.67578125 89.35742188 C119.8493434 91.80466022 120.02253409 94.25192495 120.1953125 96.69921875 C120.27653351 97.83155441 120.35775452 98.96389008 120.44143677 100.13053894 C121.57966902 116.55659576 121.57966902 116.55659576 118 123 C114.23307939 127.12567496 111.42208302 128.41006593 105.90948486 128.90588379 C99.39638648 129.11656993 92.89281412 128.55829197 86.3984375 128.109375 C84.79141424 128.00269601 83.18436829 127.89635834 81.57730103 127.79034424 C78.22333678 127.56705465 74.86986586 127.33756017 71.51660156 127.10400391 C67.23281374 126.80643799 62.94803319 126.52768725 58.66266441 126.25396347 C55.34881385 126.03964505 52.03583009 125.81370783 48.7229805 125.58448029 C47.14369613 125.47689949 45.56413819 125.37325545 43.98432541 125.27373505 C41.77287271 125.13300065 39.56310319 124.97618362 37.35302734 124.81542969 C36.09888031 124.73025085 34.84473328 124.64507202 33.55258179 124.55731201 C28.45026028 123.75688426 23.3678839 122.29402558 20.125 118 C16.93910176 113.50226131 16.29201117 109.41461881 17 104 C18.68543209 99.30968327 21.40130245 96.40455701 25.3515625 93.38671875 C28.00399957 91.1554032 30.15250006 88.50716084 32.38671875 85.8671875 C33.85919783 84.16296232 35.38636694 82.56975784 37 81 C1.50713916 50.74110942 -44.16593549 32.34985399 -91 31 C-92.04929687 30.96003906 -93.09859375 30.92007813 -94.1796875 30.87890625 C-149.73768925 29.76774622 -203.18710468 51.97328321 -243.21875 90.03515625 C-282.39400078 127.98675403 -303.59182056 180.96467881 -304.9609375 235.03515625 C-305.62288362 285.1810957 -288.61516396 335.3533878 -255 373 C-254.56059082 373.49290527 -254.12118164 373.98581055 -253.66845703 374.49365234 C-250.49317059 378.04159925 -247.26291899 381.53252493 -244 385 C-243.38382812 385.65871094 -242.76765625 386.31742187 -242.1328125 386.99609375 C-208.53365522 421.80096241 -156.44881965 443.44175308 -108.4453125 444.3359375 C-105.0049585 444.3765799 -101.56556083 444.38284792 -98.125 444.375 C-97.22503296 444.37445618 -96.32506592 444.37391235 -95.39782715 444.37335205 C-80.5982342 444.33235686 -66.45576216 443.42311189 -52 440 C-51.10555176 439.79101074 -50.21110352 439.58202148 -49.28955078 439.36669922 C2.35528775 426.86064817 49.44542219 393.71051541 77.31640625 348.30078125 C79.29494987 344.90512028 81.17255132 341.47918114 83 338 C83.32806641 337.37947754 83.65613281 336.75895508 83.99414062 336.11962891 C86.44043515 331.4644193 88.76262222 326.75899387 91 322 C91.45439453 321.03682861 91.45439453 321.03682861 91.91796875 320.05419922 C96.09580136 311.02579349 99.10675618 301.77233361 101.75 292.1875 C102.03174072 291.18154785 102.31348145 290.1755957 102.60375977 289.13916016 C106.79239461 273.28709598 108.51227631 257.43597615 108.39111328 241.07275391 C108.37499867 238.49978693 108.39110481 235.92838966 108.41015625 233.35546875 C108.4308354 217.21787772 106.22560644 201.56883881 102.1875 185.94921875 C101.14000559 181.62433655 100.596845 178.26892071 102 174 C105.55474464 169.81823508 108.66792938 168.02013903 113.83984375 166.2890625 C114.48442032 166.07180511 115.12899689 165.85454773 115.79310608 165.63070679 C117.14797605 165.17828074 118.50534481 164.73327576 119.86499023 164.29541016 C121.93529147 163.62571441 123.99369013 162.92610372 126.05273438 162.22265625 C127.37700216 161.78463407 128.70185484 161.34837546 130.02734375 160.9140625 C131.81773071 160.3255249 131.81773071 160.3255249 133.64428711 159.72509766 C138.43660542 158.68958035 141.59543474 159.12289595 145.74609375 161.71484375 C149.87254524 165.89850774 150.63342507 171.43530688 152 177 C152.16886719 177.66386719 152.33773438 178.32773437 152.51171875 179.01171875 C160.11168841 209.46874001 161.24925311 241.95181222 157 273 C156.87641113 273.90492188 156.75282227 274.80984375 156.62548828 275.7421875 C149.46654887 325.86344085 127.17214418 372.39576176 93.09375 409.68359375 C91.29965017 411.66848405 89.58598419 413.69420011 87.875 415.75 C78.21123773 426.79748805 66.72488807 436.23870327 55 445 C53.77990234 445.91458984 53.77990234 445.91458984 52.53515625 446.84765625 C12.57891262 475.73909395 -36.61102274 493.35036817 -86 495 C-86.81146484 495.02723145 -87.62292969 495.05446289 -88.45898438 495.08251953 C-134.01947538 496.38635648 -178.78283475 486.48838446 -219 465 C-219.98129883 464.48034668 -219.98129883 464.48034668 -220.98242188 463.95019531 C-235.7181898 456.09351514 -249.30089113 446.85424538 -262 436 C-263.1204513 435.0643343 -264.24158217 434.12948196 -265.36328125 433.1953125 C-277.05042846 423.40107464 -287.60805999 413.05784142 -297 401 C-297.99583526 399.7563034 -298.99194703 398.51282817 -299.98828125 397.26953125 C-318.45163834 373.97100018 -340.6239443 341.28219655 -344 311 C-343.34 310.67 -342.68 310.34 -342 310 C-341.66174194 310.97888184 -341.66174194 310.97888184 -341.31665039 311.97753906 C-326.98595431 353.21123754 -306.86003259 387.2150282 -277 419 C-276.38640625 419.65613281 -275.7728125 420.31226563 -275.140625 420.98828125 C-270.16688761 426.13965211 -264.60554219 430.5592458 -259 435 C-257.48019531 436.21042969 -257.48019531 436.21042969 -255.9296875 437.4453125 C-212.7930246 471.45652584 -160.70153503 489.52888343 -106 492 C-105.20787109 492.03996094 -104.41574219 492.07992188 -103.59960938 492.12109375 C-45.10051373 494.74437158 13.10050625 473.35077289 59 438 C60.21236328 437.08154297 60.21236328 437.08154297 61.44921875 436.14453125 C79.8112893 421.91013276 95.58864125 404.90789453 109 386 C109.42877441 385.4013916 109.85754883 384.8027832 110.29931641 384.18603516 C131.93822873 353.74971876 145.04471293 319.52652378 152 283 C152.23460937 281.77410156 152.46921875 280.54820312 152.7109375 279.28515625 C157.97085368 249.66954124 157.08556417 216.36903954 151 187 C150.79681152 186.0011377 150.59362305 185.00227539 150.38427734 183.97314453 C149.79017926 181.13964616 149.16008189 178.31880463 148.5 175.5 C148.31091064 174.68587646 148.12182129 173.87175293 147.92700195 173.03295898 C146.8208684 168.76260747 145.91438876 165.45301696 142 163 C134.31293258 161.81942267 127.32543602 164.84213764 120.125 167.3125 C118.89007812 167.71662109 117.65515625 168.12074219 116.3828125 168.53710938 C109.71951791 170.40637873 109.71951791 170.40637873 105 175 C104.29744874 181.79132885 105.79903219 187.80407247 107.42944336 194.3515625 C119.56356684 243.72674638 109.49201326 299.56688349 83.98754883 343.12719727 C71.16630869 364.27845295 55.13986587 384.34434784 35.66357422 399.68261719 C34.49794377 400.60567881 33.33861089 401.53672287 32.18408203 402.47363281 C-9.66356741 436.4133151 -63.96572384 452.16560489 -117.5625 447.3125 C-161.71145705 442.69694692 -204.18697316 425.43601837 -236.8515625 394.99609375 C-238.81040872 393.17614754 -240.82295875 391.46282627 -242.875 389.75 C-262.83466167 372.28529604 -278.06785502 348.98401818 -289 325 C-289.33483398 324.27377441 -289.66966797 323.54754883 -290.01464844 322.79931641 C-300.86027632 299.02549641 -307.25832465 273.18436453 -308 247 C-308.03996094 245.91203125 -308.07992187 244.8240625 -308.12109375 243.703125 C-309.15149819 189.15230196 -289.97697379 138.68050026 -254 98 C-253.52884766 97.46568359 -253.05769531 96.93136719 -252.57226562 96.38085938 C-247.06019003 90.16191461 -241.45468195 84.25735478 -235 79 C-233.94650737 78.1108041 -232.89313272 77.2214684 -231.83984375 76.33203125 C-217.57285128 64.44515629 -201.91631254 54.65777874 -185 47 C-184.33323242 46.69755371 -183.66646484 46.39510742 -182.97949219 46.08349609 C-130.89286968 22.8194615 -73.04836772 22.9955155 -20 43 C-1.89450688 49.93865348 14.88833275 59.87030863 30 72 C30.97195313 72.76957031 31.94390625 73.53914063 32.9453125 74.33203125 C35.306534 76.20982718 37.65795431 78.09838325 40 80 C38.62898168 83.09825545 37.0782648 85.13251459 34.62890625 87.4609375 C33.97212891 88.09773438 33.31535156 88.73453125 32.63867188 89.390625 C31.26049929 90.70786239 29.88030524 92.02298821 28.49804688 93.3359375 C22.25681517 99.32006585 22.25681517 99.32006585 19.85546875 107.4140625 C19.96503906 108.14367187 20.07460938 108.87328125 20.1875 109.625 C20.28417969 110.35976562 20.38085938 111.09453125 20.48046875 111.8515625 C21.25113566 115.14107118 21.25113566 115.14107118 23 118 C29.86356555 121.23517022 36.43980611 121.71100633 43.94921875 122.16796875 C45.19766068 122.25250809 46.4461026 122.33704742 47.7323761 122.42414856 C50.37388896 122.60038247 53.01518301 122.77194176 55.6574707 122.93530273 C59.63027025 123.18127456 63.60115933 123.45262256 67.57226562 123.72460938 C79.06384376 124.4908466 90.56468429 125.1732011 102.08203125 125.36328125 C102.92513351 125.38996384 103.76823578 125.41664642 104.6368866 125.44413757 C108.49637691 125.46092593 110.53369833 125.27195431 113.93237305 123.28979492 C117.24244203 119.6240567 117.98474715 117.26156928 118.04467773 112.3046875 C117.9572874 110.82735695 117.85679775 109.35076667 117.74609375 107.875 C117.6935997 107.05588135 117.64110565 106.2367627 117.58702087 105.39282227 C117.40362319 102.59424487 117.20213025 99.79728354 117 97 C116.85516426 94.88675072 116.7108134 92.77346817 116.56689453 90.66015625 C116.17211589 84.9475819 115.75356242 79.23702019 115.32543945 73.52685547 C115.06085495 69.97793459 114.80480768 66.42845688 114.54882812 62.87890625 C114.37812693 60.58589852 114.20692098 58.2929283 114.03515625 56 C113.96112076 54.95706787 113.88708527 53.91413574 113.81080627 52.83959961 C113.37525606 40.98094394 113.37525606 40.98094394 109.0625 30.375 C105.07200902 27.71467268 100.67458596 27.28083293 96 28 C92.38709031 29.92490786 89.7289806 32.07249338 86.93359375 35.046875 C86.20076172 35.80871094 85.46792969 36.57054687 84.71289062 37.35546875 C83.1862979 38.96199466 81.66551799 40.57406277 80.15039062 42.19140625 C79.41884766 42.94808594 78.68730469 43.70476562 77.93359375 44.484375 C76.9444397 45.53189941 76.9444397 45.53189941 75.93530273 46.60058594 C74 48 74 48 71.91186523 47.84057617 C69.03081443 46.57388508 66.98487466 44.63466392 64.625 42.5625 C23.89305469 7.61688134 -32.04350481 -14.75635777 -85.87109375 -15.23828125 C-86.78271271 -15.24812042 -87.69433167 -15.25795959 -88.63357544 -15.26809692 C-108.75846046 -15.44052085 -128.24878398 -15.30807943 -148 -11 C-149.15193848 -10.75330566 -150.30387695 -10.50661133 -151.49072266 -10.25244141 C-195.14535575 -0.66713377 -234.52116881 19.47594121 -268 49 C-268.51159668 49.44843262 -269.02319336 49.89686523 -269.55029297 50.35888672 C-316.51588059 91.72375726 -345.61878433 152.90648056 -351 215 C-351.15894657 218.31907188 -351.20940896 221.63450833 -351.23828125 224.95703125 C-351.24798447 225.8900708 -351.25768768 226.82311035 -351.26768494 227.78442383 C-351.2925376 230.79382673 -351.30520491 233.80300479 -351.3125 236.8125 C-351.31642761 238.35325699 -351.31642761 238.35325699 -351.32043457 239.92514038 C-351.32613529 260.80872406 -349.59386627 280.8748848 -344.13183594 301.12231445 C-343.27157347 304.3372697 -342.91809481 305.75428442 -344 309 C-344 308.34 -344 307.68 -344 307 C-344.66 307 -345.32 307 -346 307 C-361.33712442 247.16702845 -357.35755473 185.24513912 -331 129 C-330.6596875 128.27103516 -330.319375 127.54207031 -329.96875 126.79101562 C-322.78341721 111.56428501 -314.08939128 97.46519363 -304 84 C-303.57493164 83.42926758 -303.14986328 82.85853516 -302.71191406 82.27050781 C-292.26340178 68.33129617 -280.30612936 54.49460156 -266.6875 43.5625 C-265.74003906 42.80066406 -264.79257812 42.03882813 -263.81640625 41.25390625 C-262.42228516 40.13822266 -262.42228516 40.13822266 -261 39 C-260.18402344 38.32839844 -259.36804688 37.65679687 -258.52734375 36.96484375 C-247.38760228 27.85380317 -235.44775853 20.16985672 -223 13 C-221.8759375 12.34257813 -220.751875 11.68515625 -219.59375 11.0078125 C-153.91835087 -25.82366134 -69.05828744 -29.03436172 0 0 Z " fill="#000206" transform="translate(468,109)"/>
<path d="M0 0 C0.86882812 0.09667969 1.73765625 0.19335938 2.6328125 0.29296875 C4.875 0.8125 4.875 0.8125 6.875 2.8125 C7.09916247 5.42992648 7.20311931 7.93859935 7.2109375 10.55859375 C7.2175943 11.32551041 7.2242511 12.09242706 7.23110962 12.88258362 C7.24124115 14.50576374 7.24592648 16.12898556 7.24560547 17.75219727 C7.24997746 20.23718838 7.28628476 22.72040165 7.32421875 25.20507812 C7.33008707 26.78124392 7.33405636 28.35741816 7.3359375 29.93359375 C7.35030853 30.67741806 7.36467957 31.42124237 7.37948608 32.18760681 C7.33382086 37.33832235 7.33382086 37.33832235 4.97119141 39.7800293 C2.74324006 40.87739783 1.34529468 41.21644877 -1.125 41.1875 C-1.785 41.19523437 -2.445 41.20296875 -3.125 41.2109375 C-5.93906866 40.65032226 -7.10963995 39.88819708 -9.125 37.8125 C-9.53085601 35.06339988 -9.68630858 32.718437 -9.65625 29.96875 C-9.6600769 29.20324829 -9.66390381 28.43774658 -9.66784668 27.64904785 C-9.67056667 26.03180627 -9.66319918 24.41452077 -9.64648438 22.79736328 C-9.625073 20.32094307 -9.64627986 17.84742366 -9.671875 15.37109375 C-9.66923174 13.79947276 -9.66410678 12.22785357 -9.65625 10.65625 C-9.66434692 9.91556274 -9.67244385 9.17487549 -9.68078613 8.41174316 C-9.62027852 5.09658302 -9.57845279 3.2912626 -7.24853516 0.83129883 C-4.56912524 -0.45418951 -2.93345217 -0.37215438 0 0 Z " fill="#242D3B" transform="translate(371.125,156.1875)"/>
<path d="M0 0 C0.66 -0.00773437 1.32 -0.01546875 2 -0.0234375 C4.81633324 0.53762889 5.98630589 1.29390731 8 3.375 C8.38101126 6.13685297 8.51423643 8.49522919 8.4609375 11.25390625 C8.45956284 12.40571632 8.45956284 12.40571632 8.4581604 13.58079529 C8.45212334 15.20228262 8.43637391 16.82375873 8.41162109 18.44506836 C8.37508237 20.93189386 8.37060189 23.41723084 8.37109375 25.90429688 C8.36126368 27.47917959 8.34960716 29.05405218 8.3359375 30.62890625 C8.33371185 31.37475479 8.33148621 32.12060333 8.32919312 32.88905334 C8.23216392 38.14283608 8.23216392 38.14283608 6 40.375 C3.25 40.640625 3.25 40.640625 0 40.625 C-1.60875 40.63273438 -1.60875 40.63273438 -3.25 40.640625 C-6 40.375 -6 40.375 -8 38.375 C-8.22416247 35.75757352 -8.32811931 33.24890065 -8.3359375 30.62890625 C-8.3425943 29.86198959 -8.3492511 29.09507294 -8.35610962 28.30491638 C-8.36624115 26.68173626 -8.37092648 25.05851444 -8.37060547 23.43530273 C-8.37497746 20.95031162 -8.41128476 18.46709835 -8.44921875 15.98242188 C-8.45508707 14.40625608 -8.45905636 12.83008184 -8.4609375 11.25390625 C-8.48249405 10.13816978 -8.48249405 10.13816978 -8.50448608 8.99989319 C-8.45882086 3.84917765 -8.45882086 3.84917765 -6.09619141 1.4074707 C-3.86824006 0.31010217 -2.47029468 -0.02894877 0 0 Z " fill="#222E3A" transform="translate(370,496.625)"/>
<path d="M0 0 C1.12347839 0.00607269 1.12347839 0.00607269 2.26965332 0.01226807 C3.03894165 0.01035461 3.80822998 0.00844116 4.60083008 0.00646973 C6.22823412 0.00510799 7.85564902 0.00880368 9.48303223 0.01715088 C11.97855963 0.02785086 14.47336714 0.01725555 16.96887207 0.00445557 C18.54830075 0.00577716 20.12772898 0.00833956 21.70715332 0.01226807 C22.45613892 0.0082196 23.20512451 0.00417114 23.97680664 0 C29.25848089 0.04797064 29.25848089 0.04797064 31.48840332 2.27789307 C32.00793457 4.26617432 32.00793457 4.26617432 32.30090332 6.59039307 C32.41047363 7.34965088 32.52004395 8.10890869 32.63293457 8.89117432 C32.43141157 12.21902712 31.62513301 13.7077155 29.48840332 16.27789307 C26.65954706 16.75933793 24.43425815 16.91066311 21.60949707 16.83648682 C20.84162369 16.83415543 20.07375031 16.83182404 19.28260803 16.829422 C17.6610705 16.81968616 16.03956694 16.79790222 14.41833496 16.76495361 C11.93141577 16.71550268 9.44647304 16.70347196 6.95910645 16.69781494 C5.38421553 16.68373045 3.80934184 16.66752657 2.23449707 16.64898682 C1.48864853 16.64362411 0.74279999 16.63826141 -0.02565002 16.63273621 C-5.27830103 16.51118871 -5.27830103 16.51118871 -7.51159668 14.27789307 C-7.77722168 11.52789307 -7.77722168 11.52789307 -7.76159668 8.27789307 C-7.76675293 7.20539307 -7.77190918 6.13289307 -7.77722168 5.02789307 C-7.27544431 -0.16697854 -4.59913265 0.04177147 0 0 Z " fill="#222D3A" transform="translate(187.5115966796875,338.72210693359375)"/>
<path d="M0 0 C1.12347839 0.00607269 1.12347839 0.00607269 2.26965332 0.01226807 C3.03894165 0.01035461 3.80822998 0.00844116 4.60083008 0.00646973 C6.22823412 0.00510799 7.85564902 0.00880368 9.48303223 0.01715088 C11.97855963 0.02785086 14.47336714 0.01725555 16.96887207 0.00445557 C18.54830075 0.00577716 20.12772898 0.00833956 21.70715332 0.01226807 C22.45613892 0.0082196 23.20512451 0.00417114 23.97680664 0 C29.25848089 0.04797064 29.25848089 0.04797064 31.48840332 2.27789307 C31.75402832 5.02789307 31.75402832 5.02789307 31.73840332 8.27789307 C31.7461377 9.88664307 31.7461377 9.88664307 31.75402832 11.52789307 C31.48840332 14.27789307 31.48840332 14.27789307 29.48840332 16.27789307 C26.87119499 16.51428 24.36305723 16.63014346 21.74230957 16.64898682 C20.97539291 16.65801529 20.20847626 16.66704376 19.4183197 16.67634583 C17.79515496 16.69086204 16.17193151 16.69973847 14.54870605 16.70343018 C12.06341175 16.71533316 9.58059548 16.76450399 7.0958252 16.81500244 C5.51966546 16.82446583 3.94349045 16.83170127 2.36730957 16.83648682 C1.62348526 16.85601913 0.87966095 16.87555145 0.11329651 16.89567566 C-1.98986816 16.8772583 -1.98986816 16.8772583 -5.51159668 16.27789307 C-7.64832637 13.7077155 -8.45460493 12.21902712 -8.65612793 8.89117432 C-8.54655762 8.1319165 -8.4369873 7.37265869 -8.32409668 6.59039307 C-8.22741699 5.82340088 -8.1307373 5.05640869 -8.03112793 4.26617432 C-6.85084954 -0.25083095 -4.11795081 0.03740115 0 0 Z " fill="#232D39" transform="translate(528.5115966796875,338.72210693359375)"/>
<path d="M0 0 C3.20394825 3.8064761 5.16435631 8.15622273 7.30859375 12.60546875 C7.92058372 13.8634301 7.92058372 13.8634301 8.54493713 15.14680481 C9.40670878 16.92022546 10.26643989 18.69463895 11.12426758 20.4699707 C12.42541633 23.16249473 13.73262754 25.85200321 15.04101562 28.54101562 C15.88056845 30.27065858 16.71977223 32.00047102 17.55859375 33.73046875 C17.94413925 34.52454636 18.32968475 35.31862396 18.72691345 36.13676453 C20.61947994 40.05678862 22.47623185 43.99150082 24.27758789 47.9543457 C24.60876114 48.68281204 24.93993439 49.41127838 25.28114319 50.16181946 C26 52 26 52 26 54 C32.90154091 51.24449426 39.80251906 48.48758266 46.703125 45.72973633 C49.04609744 44.79354724 51.38919409 43.85766893 53.73242188 42.92211914 C57.11882454 41.5700099 60.50476491 40.21674851 63.890625 38.86328125 C65.43825531 38.24577751 65.43825531 38.24577751 67.01715088 37.61579895 C73.18481935 35.14882472 79.32126147 32.61959649 85.43450928 30.02043152 C91.20393883 27.72562386 95.47926924 27.52633772 101.13671875 29.91015625 C105.15730904 32.26182227 107.52853728 35.58561185 109 40 C109.3684431 45.61875724 109.19190228 49.15711379 106 54 C102.66761419 56.96571553 99.51934878 58.84826473 95.3984375 60.5234375 C94.28533203 60.98032959 93.17222656 61.43722168 92.02539062 61.90795898 C90.82076172 62.39208252 89.61613281 62.87620605 88.375 63.375 C87.10326937 63.89270604 85.83179048 64.41103085 84.56054688 64.92993164 C81.11324885 66.33367484 77.66119312 67.72530601 74.20739746 69.11297607 C71.94530826 70.02197741 69.6840168 70.9329412 67.42285156 71.84423828 C57.92954742 75.6683055 48.432175 79.48228103 38.9128418 83.2411499 C37.03075615 83.98779862 35.15294947 84.74449398 33.27539062 85.50244141 C32.13263672 85.9566748 30.98988281 86.4109082 29.8125 86.87890625 C28.32169922 87.47747437 28.32169922 87.47747437 26.80078125 88.08813477 C21.42338124 89.83888346 16.44349515 89.97739806 11.1875 87.875 C5.02631019 82.59398016 2.01396156 76.39886261 -1.3125 69.125 C-1.76689453 68.15046875 -2.22128906 67.1759375 -2.68945312 66.171875 C-3.80105503 63.78485618 -4.9042708 61.39433576 -6 59 C-5.34 58.34 -4.68 57.68 -4 57 C-3.62713867 57.77190674 -3.25427734 58.54381348 -2.87011719 59.33911133 C-1.47671596 62.21132556 -0.07423844 65.07887103 1.33447266 67.94360352 C1.94131892 69.18237903 2.54455682 70.42292918 3.14404297 71.6652832 C4.00829683 73.45470434 4.88681031 75.23721606 5.765625 77.01953125 C6.28930664 78.09307861 6.81298828 79.16662598 7.35253906 80.27270508 C9.04222369 83.06989936 10.14387358 84.45116345 13 86 C22.29938699 87.7446385 30.03908555 84.50830591 38.375 80.75 C39.62943176 80.20424688 40.88499512 79.66108838 42.14160156 79.12036133 C44.10051899 78.27727298 46.05869994 77.43284598 48.01367188 76.5806427 C54.56209676 73.72933261 61.18503241 71.07811978 67.82556152 68.45007324 C70.9621799 67.20716458 74.09391882 65.95210972 77.2265625 64.69921875 C81.32083575 63.06458614 85.41922203 61.44151255 89.5234375 59.83203125 C91.05742988 59.22170142 92.59129751 58.61105792 94.125 58 C94.78725586 57.74565186 95.44951172 57.49130371 96.13183594 57.22924805 C99.86568286 55.72776706 102.44505046 54.12950757 105 51 C106.44839593 46.65481221 106.44827804 42.75235963 105.3125 38.3125 C103.50298243 35.12430237 102.25204941 33.79194559 99 32 C89.95862636 30.58814866 82.80816876 33.61552801 74.6875 37.25 C73.43796811 37.79049146 72.18737275 38.32853016 70.93579102 38.86425781 C68.97939297 39.70205803 67.02374292 40.54127606 65.07102966 41.38763428 C58.23459115 44.35057285 51.34289554 47.17063459 44.42910767 49.94763184 C42.46578897 50.73860309 40.5066508 51.53932978 38.54760742 52.34082031 C36.75867065 53.06156738 36.75867065 53.06156738 34.93359375 53.796875 C33.88228271 54.22323242 32.83097168 54.64958984 31.74780273 55.08886719 C29 56 29 56 25 56 C19.30781526 44.67934535 13.63897759 33.34725763 8 22 C7.43748535 20.86916992 6.8749707 19.73833984 6.29541016 18.57324219 C4.97635709 15.90872858 3.67149781 13.23804213 2.375 10.5625 C2.00383057 9.81444092 1.63266113 9.06638184 1.25024414 8.2956543 C-1.11632727 3.3489818 -1.11632727 3.3489818 0 0 Z " fill="#D01122" transform="translate(351,273)"/>
<path d="M0 0 C0.86882812 0.09667969 1.73765625 0.19335938 2.6328125 0.29296875 C4.875 0.8125 4.875 0.8125 6.875 2.8125 C7.09916247 5.42992648 7.20311931 7.93859935 7.2109375 10.55859375 C7.2175943 11.32551041 7.2242511 12.09242706 7.23110962 12.88258362 C7.24124115 14.50576374 7.24592648 16.12898556 7.24560547 17.75219727 C7.24997746 20.23718838 7.28628476 22.72040165 7.32421875 25.20507812 C7.33008707 26.78124392 7.33405636 28.35741816 7.3359375 29.93359375 C7.35030853 30.67741806 7.36467957 31.42124237 7.37948608 32.18760681 C7.33382086 37.33832235 7.33382086 37.33832235 4.97119141 39.7800293 C2.74324006 40.87739783 1.34529468 41.21644877 -1.125 41.1875 C-1.785 41.19523437 -2.445 41.20296875 -3.125 41.2109375 C-5.93906866 40.65032226 -7.10963995 39.88819708 -9.125 37.8125 C-9.53085601 35.06339988 -9.68630858 32.718437 -9.65625 29.96875 C-9.6600769 29.20324829 -9.66390381 28.43774658 -9.66784668 27.64904785 C-9.67056667 26.03180627 -9.66319918 24.41452077 -9.64648438 22.79736328 C-9.625073 20.32094307 -9.64627986 17.84742366 -9.671875 15.37109375 C-9.66923174 13.79947276 -9.66410678 12.22785357 -9.65625 10.65625 C-9.66434692 9.91556274 -9.67244385 9.17487549 -9.68078613 8.41174316 C-9.62027852 5.09658302 -9.57845279 3.2912626 -7.24853516 0.83129883 C-4.56912524 -0.45418951 -2.93345217 -0.37215438 0 0 Z M-7.125 3.8125 C-7.21347743 6.33344076 -7.24027301 8.82680893 -7.22265625 11.34765625 C-7.2212413 12.10090683 -7.21982635 12.85415741 -7.21836853 13.63023376 C-7.21275376 16.0451956 -7.20019883 18.46006601 -7.1875 20.875 C-7.1824869 22.50846221 -7.17792366 24.14192586 -7.17382812 25.77539062 C-7.16277954 29.78779585 -7.14550506 33.80013241 -7.125 37.8125 C-3.165 37.8125 0.795 37.8125 4.875 37.8125 C4.8996519 32.98869198 4.91783693 28.16492033 4.92993164 23.34106445 C4.93497174 21.69880536 4.94180378 20.05655077 4.95043945 18.41430664 C4.96251926 16.05874521 4.96823139 13.70324291 4.97265625 11.34765625 C4.97781754 10.60910904 4.98297882 9.87056183 4.98829651 9.1096344 C4.9884925 7.34351912 4.93694719 5.57752854 4.875 3.8125 C3.84466611 2.56076221 3.84466611 2.56076221 1.625 2.6796875 C0.26375 2.68355469 0.26375 2.68355469 -1.125 2.6875 C-2.0325 2.68492187 -2.94 2.68234375 -3.875 2.6796875 C-6.09466611 2.56076221 -6.09466611 2.56076221 -7.125 3.8125 Z " fill="#04070D" transform="translate(371.125,156.1875)"/>
<path d="M0 0 C0.66 -0.00773437 1.32 -0.01546875 2 -0.0234375 C4.81633324 0.53762889 5.98630589 1.29390731 8 3.375 C8.38101126 6.13685297 8.51423643 8.49522919 8.4609375 11.25390625 C8.45956284 12.40571632 8.45956284 12.40571632 8.4581604 13.58079529 C8.45212334 15.20228262 8.43637391 16.82375873 8.41162109 18.44506836 C8.37508237 20.93189386 8.37060189 23.41723084 8.37109375 25.90429688 C8.36126368 27.47917959 8.34960716 29.05405218 8.3359375 30.62890625 C8.33371185 31.37475479 8.33148621 32.12060333 8.32919312 32.88905334 C8.23216392 38.14283608 8.23216392 38.14283608 6 40.375 C3.25 40.640625 3.25 40.640625 0 40.625 C-1.60875 40.63273438 -1.60875 40.63273438 -3.25 40.640625 C-6 40.375 -6 40.375 -8 38.375 C-8.22416247 35.75757352 -8.32811931 33.24890065 -8.3359375 30.62890625 C-8.3425943 29.86198959 -8.3492511 29.09507294 -8.35610962 28.30491638 C-8.36624115 26.68173626 -8.37092648 25.05851444 -8.37060547 23.43530273 C-8.37497746 20.95031162 -8.41128476 18.46709835 -8.44921875 15.98242188 C-8.45508707 14.40625608 -8.45905636 12.83008184 -8.4609375 11.25390625 C-8.48249405 10.13816978 -8.48249405 10.13816978 -8.50448608 8.99989319 C-8.45882086 3.84917765 -8.45882086 3.84917765 -6.09619141 1.4074707 C-3.86824006 0.31010217 -2.47029468 -0.02894877 0 0 Z M-6 3.375 C-6.0246519 8.19880802 -6.04283693 13.02257967 -6.05493164 17.84643555 C-6.05997174 19.48869464 -6.06680378 21.13094923 -6.07543945 22.77319336 C-6.08751926 25.12875479 -6.09323139 27.48425709 -6.09765625 29.83984375 C-6.10281754 30.57839096 -6.10797882 31.31693817 -6.11329651 32.0778656 C-6.1134925 33.84398088 -6.06194719 35.60997146 -6 37.375 C-5.67 37.705 -5.34 38.035 -5 38.375 C-1.37 38.375 2.26 38.375 6 38.375 C6 26.825 6 15.275 6 3.375 C2.04 3.375 -1.92 3.375 -6 3.375 Z " fill="#03060A" transform="translate(370,496.625)"/>
<path d="M0 0 C1.12347839 0.00607269 1.12347839 0.00607269 2.26965332 0.01226807 C3.03894165 0.01035461 3.80822998 0.00844116 4.60083008 0.00646973 C6.22823412 0.00510799 7.85564902 0.00880368 9.48303223 0.01715088 C11.97855963 0.02785086 14.47336714 0.01725555 16.96887207 0.00445557 C18.54830075 0.00577716 20.12772898 0.00833956 21.70715332 0.01226807 C22.45613892 0.0082196 23.20512451 0.00417114 23.97680664 0 C29.25848089 0.04797064 29.25848089 0.04797064 31.48840332 2.27789307 C32.00793457 4.26617432 32.00793457 4.26617432 32.30090332 6.59039307 C32.41047363 7.34965088 32.52004395 8.10890869 32.63293457 8.89117432 C32.43141157 12.21902712 31.62513301 13.7077155 29.48840332 16.27789307 C26.65954706 16.75933793 24.43425815 16.91066311 21.60949707 16.83648682 C20.84162369 16.83415543 20.07375031 16.83182404 19.28260803 16.829422 C17.6610705 16.81968616 16.03956694 16.79790222 14.41833496 16.76495361 C11.93141577 16.71550268 9.44647304 16.70347196 6.95910645 16.69781494 C5.38421553 16.68373045 3.80934184 16.66752657 2.23449707 16.64898682 C1.48864853 16.64362411 0.74279999 16.63826141 -0.02565002 16.63273621 C-5.27830103 16.51118871 -5.27830103 16.51118871 -7.51159668 14.27789307 C-7.77722168 11.52789307 -7.77722168 11.52789307 -7.76159668 8.27789307 C-7.76675293 7.20539307 -7.77190918 6.13289307 -7.77722168 5.02789307 C-7.27544431 -0.16697854 -4.59913265 0.04177147 0 0 Z M-5.51159668 3.27789307 C-5.60983605 4.94218358 -5.64133299 6.61071238 -5.63659668 8.27789307 C-5.6391748 9.18539307 -5.64175293 10.09289307 -5.64440918 11.02789307 C-5.76333447 13.24755917 -5.76333447 13.24755917 -4.51159668 14.27789307 C-1.99065591 14.3663705 0.50271225 14.39316608 3.02355957 14.37554932 C3.77681015 14.37413437 4.53006073 14.37271942 5.30613708 14.3712616 C7.72109892 14.36564682 10.13596933 14.3530919 12.55090332 14.34039307 C14.18436553 14.33537997 15.81782918 14.33081673 17.45129395 14.32672119 C21.46369917 14.3156726 25.47603573 14.29839813 29.48840332 14.27789307 C29.48840332 10.31789307 29.48840332 6.35789307 29.48840332 2.27789307 C24.6645953 2.25324117 19.84082365 2.23505614 15.01696777 2.22296143 C13.37470868 2.21792133 11.73245409 2.21108929 10.09020996 2.20245361 C7.73464853 2.19037381 5.37914623 2.18466168 3.02355957 2.18023682 C2.28501236 2.17507553 1.54646515 2.16991425 0.78553772 2.16459656 C-2.65126162 1.85163587 -2.65126162 1.85163587 -5.51159668 3.27789307 Z " fill="#000001" transform="translate(187.5115966796875,338.72210693359375)"/>
<path d="M0 0 C1.12347839 0.00607269 1.12347839 0.00607269 2.26965332 0.01226807 C3.03894165 0.01035461 3.80822998 0.00844116 4.60083008 0.00646973 C6.22823412 0.00510799 7.85564902 0.00880368 9.48303223 0.01715088 C11.97855963 0.02785086 14.47336714 0.01725555 16.96887207 0.00445557 C18.54830075 0.00577716 20.12772898 0.00833956 21.70715332 0.01226807 C22.45613892 0.0082196 23.20512451 0.00417114 23.97680664 0 C29.25848089 0.04797064 29.25848089 0.04797064 31.48840332 2.27789307 C31.75402832 5.02789307 31.75402832 5.02789307 31.73840332 8.27789307 C31.7461377 9.88664307 31.7461377 9.88664307 31.75402832 11.52789307 C31.48840332 14.27789307 31.48840332 14.27789307 29.48840332 16.27789307 C26.87119499 16.51428 24.36305723 16.63014346 21.74230957 16.64898682 C20.97539291 16.65801529 20.20847626 16.66704376 19.4183197 16.67634583 C17.79515496 16.69086204 16.17193151 16.69973847 14.54870605 16.70343018 C12.06341175 16.71533316 9.58059548 16.76450399 7.0958252 16.81500244 C5.51966546 16.82446583 3.94349045 16.83170127 2.36730957 16.83648682 C1.62348526 16.85601913 0.87966095 16.87555145 0.11329651 16.89567566 C-1.98986816 16.8772583 -1.98986816 16.8772583 -5.51159668 16.27789307 C-7.64832637 13.7077155 -8.45460493 12.21902712 -8.65612793 8.89117432 C-8.54655762 8.1319165 -8.4369873 7.37265869 -8.32409668 6.59039307 C-8.22741699 5.82340088 -8.1307373 5.05640869 -8.03112793 4.26617432 C-6.85084954 -0.25083095 -4.11795081 0.03740115 0 0 Z M-5.51159668 2.27789307 C-5.51159668 6.23789307 -5.51159668 10.19789307 -5.51159668 14.27789307 C-0.68778866 14.30254497 4.13598299 14.32072999 8.95983887 14.33282471 C10.60209796 14.33786481 12.24435255 14.34469685 13.88659668 14.35333252 C16.24215811 14.36541232 18.59766041 14.37112445 20.95324707 14.37554932 C22.06106789 14.38329124 22.06106789 14.38329124 23.19126892 14.39118958 C24.9573842 14.39138556 26.72337478 14.33984025 28.48840332 14.27789307 C29.74014111 13.24755917 29.74014111 13.24755917 29.62121582 11.02789307 C29.61734863 9.66664307 29.61734863 9.66664307 29.61340332 8.27789307 C29.61598145 7.37039307 29.61855957 6.46289307 29.62121582 5.52789307 C29.74014111 3.30822696 29.74014111 3.30822696 28.48840332 2.27789307 C25.96746256 2.18941564 23.47409439 2.16262005 20.95324707 2.18023682 C20.19999649 2.18165176 19.44674591 2.18306671 18.67066956 2.18452454 C16.25570772 2.19013931 13.84083731 2.20269424 11.42590332 2.21539307 C9.79244111 2.22040617 8.15897746 2.2249694 6.5255127 2.22906494 C2.51310747 2.24011353 -1.49922908 2.257388 -5.51159668 2.27789307 Z " fill="#000002" transform="translate(528.5115966796875,338.72210693359375)"/>
<path d="M0 0 C3 1 3 1 4.31518555 3.24633789 C4.7512915 4.22852295 5.18739746 5.21070801 5.63671875 6.22265625 C6.12712646 7.3098999 6.61753418 8.39714355 7.12280273 9.51733398 C7.63915283 10.68723877 8.15550293 11.85714355 8.6875 13.0625 C9.77416446 15.47220158 10.86269973 17.88106041 11.953125 20.2890625 C12.47970703 21.45598633 13.00628906 22.62291016 13.54882812 23.82519531 C15.26247202 27.57422379 17.06190862 31.26742113 18.9375 34.9375 C21.46665209 39.89216728 23.91302286 44.88168942 26.30859375 49.90234375 C26.74754219 50.82094429 26.74754219 50.82094429 27.19535828 51.75810242 C28.38388448 54.24637157 29.57198858 56.7347912 30.75167847 59.2272644 C31.57823218 60.97353821 32.41010797 62.71728991 33.2421875 64.4609375 C33.7254248 65.47978027 34.20866211 66.49862305 34.70654297 67.54833984 C35.89329235 70.09025966 35.89329235 70.09025966 38 72 C38.68742673 73.99295984 39.35042669 75.99438315 40 78 C41.01311071 80.30443317 42.05538074 82.59624591 43.125 84.875 C43.66382813 86.02742188 44.20265625 87.17984375 44.7578125 88.3671875 C45.16773438 89.23601562 45.57765625 90.10484375 46 91 C45.34 91.66 44.68 92.32 44 93 C24.66067753 53.38582397 24.66067753 53.38582397 17.95654297 39.28613281 C15.4055402 33.924127 12.82600763 28.57691586 10.2265625 23.23828125 C9.57130183 21.89017007 8.91610967 20.54202558 8.26098633 19.19384766 C7.29349438 17.20286647 6.32475942 15.21254839 5.35165405 13.2243042 C4.45626077 11.39470312 3.56590345 9.56264006 2.67578125 7.73046875 C2.15927002 6.67239014 1.64275879 5.61431152 1.1105957 4.52416992 C0 2 0 2 0 0 Z " fill="#C9172A" transform="translate(300,237)"/>
<path d="M0 0 C0.66 0 1.32 0 2 0 C12.72754717 47.54490566 12.72754717 47.54490566 7 59 C6.77141886 61.0374763 6.58975722 63.08040303 6.4375 65.125 C6.35371094 66.22070312 6.26992188 67.31640625 6.18359375 68.4453125 C6.12300781 69.28835938 6.06242188 70.13140625 6 71 C5.67 71 5.34 71 5 71 C4.97812622 69.29408691 4.97812622 69.29408691 4.95581055 67.55371094 C4.89670204 63.2293751 4.81950718 58.90550092 4.73754883 54.58154297 C4.70481723 52.72973261 4.67663506 50.87783482 4.65356445 49.02587891 C4.50442719 37.35509469 3.68588645 26.09943761 1.72973633 14.58691406 C0.91396734 9.74657467 0.43402911 4.88756432 0 0 Z " fill="#070A0D" transform="translate(572,297)"/>
<path d="M0 0 C7.77147833 4.42303389 10.92201739 14.44590228 14.5625 22.1875 C15.04783203 23.20650391 15.53316406 24.22550781 16.03320312 25.27539062 C18.10480661 29.64433093 20.11561864 33.99446482 21.875 38.5 C20.885 38.5 19.895 38.5 18.875 38.5 C18.40191406 37.47003906 17.92882812 36.44007813 17.44140625 35.37890625 C13.82523473 27.5616079 10.11378271 19.79171082 6.1875 12.125 C5.65394897 11.04714233 5.65394897 11.04714233 5.10961914 9.94750977 C2.98035888 5.85836779 1.30263491 3.3454217 -3.125 1.5 C-5.38460513 1.03385833 -5.38460513 1.03385833 -7.625 1.125 C-8.72328125 1.11339844 -8.72328125 1.11339844 -9.84375 1.1015625 C-12.89401851 1.63431488 -14.67554972 2.60116994 -17.125 4.5 C-18.57129043 7.18532831 -18.57129043 7.18532831 -19.4375 10.1875 C-19.76363281 11.18136719 -20.08976562 12.17523438 -20.42578125 13.19921875 C-20.77189453 14.33810547 -20.77189453 14.33810547 -21.125 15.5 C-21.785 15.5 -22.445 15.5 -23.125 15.5 C-22.50803993 9.2070073 -21.36419493 5.51527543 -16.625 1.25 C-11.3620843 -2.43404099 -5.8250778 -2.49960805 0 0 Z " fill="#CE1323" transform="translate(315.125,204.5)"/>
<path d="M0 0 C3.43821654 2.76529342 4.83281888 6.63073022 6.5625 10.5625 C8.69067189 15.65436273 8.69067189 15.65436273 12 20 C12.68742673 21.99295984 13.35042669 23.99438315 14 26 C15.01311071 28.30443317 16.05538074 30.59624591 17.125 32.875 C17.66382813 34.02742188 18.20265625 35.17984375 18.7578125 36.3671875 C19.16773438 37.23601562 19.57765625 38.10484375 20 39 C19.34 39.66 18.68 40.32 18 41 C15.26567975 35.48736157 12.54172297 29.96977423 9.82739258 24.44726562 C8.9018662 22.56792523 7.97348523 20.68998792 7.04223633 18.81347656 C5.70688228 16.12144829 4.38175746 13.424599 3.05859375 10.7265625 C2.63783066 9.88380768 2.21706757 9.04105286 1.78355408 8.17276001 C1.40308426 7.39210175 1.02261444 6.61144348 0.63061523 5.80712891 C0.29086166 5.11873932 -0.04889191 4.43034973 -0.39894104 3.72109985 C-0.69646523 2.86915543 -0.69646523 2.86915543 -1 2 C-0.67 1.34 -0.34 0.68 0 0 Z " fill="#C61829" transform="translate(326,289)"/>
<path d="M0 0 C0.33 0 0.66 0 1 0 C3.91021672 27.9876161 3.91021672 27.9876161 3 38 C2.34 38.66 1.68 39.32 1 40 C0.68505253 36.0722157 0.3825192 32.14367402 0.09057617 28.21411133 C-0.0589837 26.23405314 -0.21785693 24.2547054 -0.37695312 22.27539062 C-0.93239613 14.70987385 -1.01171279 7.52553382 0 0 Z " fill="#060A10" transform="translate(583,154)"/>
<path d="M0 0 C0.33 0 0.66 0 1 0 C1.06058594 0.77085937 1.12117187 1.54171875 1.18359375 2.3359375 C1.26738281 3.33882813 1.35117187 4.34171875 1.4375 5.375 C1.51871094 6.37273437 1.59992187 7.37046875 1.68359375 8.3984375 C1.84965626 10.97927613 1.84965626 10.97927613 3 13 C3.09715342 15.33168218 3.12978217 17.66629957 3.125 20 C3.12757813 21.258125 3.13015625 22.51625 3.1328125 23.8125 C3 27 3 27 2 29 C1.77141886 31.0374763 1.58975722 33.08040303 1.4375 35.125 C1.35371094 36.22070312 1.26992188 37.31640625 1.18359375 38.4453125 C1.12300781 39.28835938 1.06242188 40.13140625 1 41 C0.67 41 0.34 41 0 41 C0 27.47 0 13.94 0 0 Z " fill="#0C141E" transform="translate(577,327)"/>
<path d="M0 0 C2.72606838 2.40468031 4.08407503 4.87570953 5.62890625 8.1484375 C6.10650391 9.15390625 6.58410156 10.159375 7.07617188 11.1953125 C7.56666016 12.24460938 8.05714844 13.29390625 8.5625 14.375 C9.05685547 15.4165625 9.55121094 16.458125 10.06054688 17.53125 C12.16315065 21.98114485 14.20940965 26.41397541 16 31 C15.01 31 14.02 31 13 31 C8.29057309 21.01936175 3.60482163 11.02944106 -1 1 C-0.67 0.67 -0.34 0.34 0 0 Z " fill="#CA1628" transform="translate(321,212)"/>
<path d="M0 0 C-3.10339436 1.3143315 -6.20784568 2.62614781 -9.3125 3.9375 C-10.19357422 4.31068359 -11.07464844 4.68386719 -11.98242188 5.06835938 C-12.82998047 5.42607422 -13.67753906 5.78378906 -14.55078125 6.15234375 C-15.33106689 6.48226318 -16.11135254 6.81218262 -16.9152832 7.15209961 C-20.54409789 8.62801873 -23.29291339 9.11307905 -27.1875 9.0625 C-28.53908203 9.04896484 -28.53908203 9.04896484 -29.91796875 9.03515625 C-30.60503906 9.02355469 -31.29210937 9.01195312 -32 9 C-32 8.34 -32 7.68 -32 7 C-31.10474609 7.01353516 -31.10474609 7.01353516 -30.19140625 7.02734375 C-22.61535507 6.76842967 -16.63367047 4.48056056 -9.84008789 1.35131836 C-3.93271434 -1.30710191 -3.93271434 -1.30710191 0 0 Z " fill="#C40C21" transform="translate(397,353)"/>
<path d="M0 0 C3 1 3 1 4.44213867 3.40844727 C5.17267456 4.97163696 5.17267456 4.97163696 5.91796875 6.56640625 C6.44970703 7.69111328 6.98144531 8.81582031 7.52929688 9.97460938 C8.07650391 11.15861328 8.62371094 12.34261719 9.1875 13.5625 C9.74630859 14.75037109 10.30511719 15.93824219 10.88085938 17.16210938 C12.26314495 20.10389663 13.63569089 23.04984351 15 26 C14.34 26.66 13.68 27.32 13 28 C12.48050781 26.96101563 11.96101563 25.92203125 11.42578125 24.8515625 C11.08998047 24.18012207 10.75417969 23.50868164 10.40820312 22.81689453 C9.67591171 21.35198538 8.94414337 19.88681463 8.21289062 18.42138672 C6.60555121 15.20171173 4.9927646 11.98583856 3.35546875 8.78125 C2.68451172 7.46640625 2.68451172 7.46640625 2 6.125 C1.608125 5.36445313 1.21625 4.60390625 0.8125 3.8203125 C0 2 0 2 0 0 Z " fill="#C91A26" transform="translate(336,245)"/>
<path d="M0 0 C0.66 0 1.32 0 2 0 C2 7.59 2 15.18 2 23 C1.34 23 0.68 23 0 23 C-1.20262933 19.392112 -1.13247114 16.42781238 -1.125 12.625 C-1.12757813 11.31789063 -1.13015625 10.01078125 -1.1328125 8.6640625 C-1.0224678 5.61984687 -0.71706674 2.94794102 0 0 Z " fill="#000106" transform="translate(161,336)"/>
<path d="M0 0 C0.99 0 1.98 0 3 0 C2.67 5.94 2.34 11.88 2 18 C1.34 18 0.68 18 0 18 C0 19.65 0 21.3 0 23 C-0.33 23 -0.66 23 -1 23 C-1.1567564 15.28410183 -0.67453101 7.68483539 0 0 Z " fill="#000102" transform="translate(624,356)"/>
<path d="M0 0 C1.485 0.99 1.485 0.99 3 2 C3.29296875 5.2578125 3.29296875 5.2578125 3.1875 9.125 C3.16042969 10.40632813 3.13335938 11.68765625 3.10546875 13.0078125 C3.07066406 13.99523437 3.03585937 14.98265625 3 16 C2.01 16 1.02 16 0 16 C0 10.72 0 5.44 0 0 Z " fill="#05111B" transform="translate(624,340)"/>
<path d="M0 0 C0.66 0 1.32 0 2 0 C2.8320582 5.72040011 3.12036664 11.22240116 3 17 C2.34 17.33 1.68 17.66 1 18 C-0.2062252 14.38132441 -0.10816918 11.07493749 -0.0625 7.3125 C-0.05798828 6.61060547 -0.05347656 5.90871094 -0.04882812 5.18554688 C-0.03706927 3.45699462 -0.01913454 1.72848635 0 0 Z " fill="#000002" transform="translate(624,325)"/>
<path d="M0 0 C0.33 0 0.66 0 1 0 C1.24794402 6.5705166 0.32388229 12.56971459 -1 19 C-1.99 18.67 -2.98 18.34 -4 18 C-2.07289294 5.33029613 -2.07289294 5.33029613 0 0 Z " fill="#080C16" transform="translate(624,374)"/>
<path d="M0 0 C4.44542995 7.11268791 3.10995155 16.9857537 3 25 C2.67 25 2.34 25 2 25 C2 21.37 2 17.74 2 14 C1.34 14 0.68 14 0 14 C-0.19627391 12.41773035 -0.38165538 10.83410729 -0.5625 9.25 C-0.66691406 8.36828125 -0.77132812 7.4865625 -0.87890625 6.578125 C-0.99456676 4.11567549 -0.73638695 2.33461936 0 0 Z " fill="#000103" transform="translate(576,313)"/>
<path d="M0 0 C1.74946934 1.92003041 2.76389222 3.68229791 4 6 C3.01 6 2.02 6 1 6 C0.29875 5.21625 -0.4025 4.4325 -1.125 3.625 C-4.84296616 0.23033525 -8.12857008 -0.28891982 -13 -1 C-13 -1.33 -13 -1.66 -13 -2 C-8.17093226 -3.65999204 -4.27940182 -2.51939731 0 0 Z " fill="#CD0A19" transform="translate(318,206)"/>
<path d="M0 0 C2 3 2 3 2 5 C2.66 5 3.32 5 4 5 C4.99 8.3 5.98 11.6 7 15 C4 14 4 14 2.83203125 12.109375 C-0.55201294 4.27810031 -0.55201294 4.27810031 0 0 Z " fill="#D41229" transform="translate(294,221)"/>
<path d="M0 0 C2.27477677 3.53854164 1.99082706 5.70947373 1.125 9.75 C0.92132812 10.73484375 0.71765625 11.7196875 0.5078125 12.734375 C0.34023438 13.48203125 0.17265625 14.2296875 0 15 C-0.66 15 -1.32 15 -2 15 C-1.03644647 4.44191344 -1.03644647 4.44191344 0 0 Z " fill="#090C0F" transform="translate(575,378)"/>
<path d="M0 0 C0.53625 0.515625 1.0725 1.03125 1.625 1.5625 C1.625 2.2225 1.625 2.8825 1.625 3.5625 C-0.375 2.5625 -2.375 1.5625 -4.375 0.5625 C-5.91168865 0.33782169 -7.45468054 0.15453195 -9 0 C-9.81726563 -0.08378906 -10.63453125 -0.16757812 -11.4765625 -0.25390625 C-12.10304688 -0.31449219 -12.72953125 -0.37507813 -13.375 -0.4375 C-13.375 -0.7675 -13.375 -1.0975 -13.375 -1.4375 C-8.45379152 -2.74017283 -4.42950157 -2.68101411 0 0 Z " fill="#BC1125" transform="translate(454.375,304.4375)"/>
<path d="M0 0 C0.33 0 0.66 0 1 0 C1 1.65 1 3.3 1 5 C1.66 5 2.32 5 3 5 C4.23076923 10.41538462 4.23076923 10.41538462 3.0625 13.375 C2.711875 13.91125 2.36125 14.4475 2 15 C0.53329887 9.77487721 -0.22577402 5.4185766 0 0 Z " fill="#090C0F" transform="translate(117,388)"/>
<path d="M0 0 C3.09592835 3.5087188 4.74194623 6.49197399 6 11 C5.01 11.495 5.01 11.495 4 12 C2.35 8.37 0.7 4.74 -1 1 C-0.67 0.67 -0.34 0.34 0 0 Z " fill="#D50F19" transform="translate(340,318)"/>
<path d="M0 0 C0.33 0 0.66 0 1 0 C1.33 3.63 1.66 7.26 2 11 C1.01 10.67 0.02 10.34 -1 10 C-1.02689216 8.52093108 -1.04634621 7.04172517 -1.0625 5.5625 C-1.07410156 4.73878906 -1.08570313 3.91507812 -1.09765625 3.06640625 C-1 1 -1 1 0 0 Z " fill="#080C11" transform="translate(624,314)"/>
<path d="M0 0 C0.66 0 1.32 0 2 0 C3.32 2.97 4.64 5.94 6 9 C5.34 9.66 4.68 10.32 4 11 C3.32591692 9.73308493 2.66099503 8.46129251 2 7.1875 C1.62875 6.47980469 1.2575 5.77210938 0.875 5.04296875 C0 3 0 3 0 0 Z " fill="#DA111F" transform="translate(367,308)"/>
<path d="M0 0 C1 1 2 2 3 3 C4.299375 4.2684375 4.299375 4.2684375 5.625 5.5625 C8 8 8 8 9 10 C5.40094092 9.44449305 4.00090201 8.25112752 1.75 5.4375 C1.22921875 4.79683594 0.7084375 4.15617187 0.171875 3.49609375 C-0.21484375 3.00238281 -0.6015625 2.50867188 -1 2 C-0.67 1.34 -0.34 0.68 0 0 Z " fill="#D50B1F" transform="translate(356,351)"/>
<path d="M0 0 C3.45574116 2.67034544 3.86931309 5.92952713 5 10 C5.66 10.33 6.32 10.66 7 11 C6.01 11.33 5.02 11.66 4 12 C3.32332002 10.75539217 2.65905281 9.50403104 2 8.25 C1.62875 7.55390625 1.2575 6.8578125 0.875 6.140625 C0 4 0 4 0 0 Z " fill="#D42031" transform="translate(372,317)"/>
<path d="M0 0 C0.66 0.66 1.32 1.32 2 2 C0.35 2.33 -1.3 2.66 -3 3 C-3 3.66 -3 4.32 -3 5 C-5.31 5 -7.62 5 -10 5 C-6.7321794 2.82145293 -3.61941735 1.50239966 0 0 Z " fill="#DD353E" transform="translate(397,321)"/>
<path d="M0 0 C2.33936818 2.12669835 3.80653848 4.06224856 5 7 C5 7.99 5 8.98 5 10 C4.34 10 3.68 10 3 10 C1.68 7.03 0.36 4.06 -1 1 C-0.67 0.67 -0.34 0.34 0 0 Z " fill="#D50F21" transform="translate(326,289)"/>
<path d="M0 0 C0.99 0 1.98 0 3 0 C3 0.66 3 1.32 3 2 C3.66 2 4.32 2 5 2 C5 2.66 5 3.32 5 4 C5.66 4 6.32 4 7 4 C7 4.66 7 5.32 7 6 C2.32307692 4.52307692 2.32307692 4.52307692 0.6875 1.875 C0.460625 1.25625 0.23375 0.6375 0 0 Z " fill="#EC2E47" transform="translate(359,354)"/>
<path d="M0 0 C0.33 0 0.66 0 1 0 C1 2.64 1 5.28 1 8 C0.01 7.67 -0.98 7.34 -2 7 C-1.125 1.125 -1.125 1.125 0 0 Z " fill="#000001" transform="translate(117,307)"/>
<path d="M0 0 C0.99 0.495 0.99 0.495 2 1 C2.625 4.0625 2.625 4.0625 3 7 C2.01 7.33 1.02 7.66 0 8 C0 5.36 0 2.72 0 0 Z " fill="#000101" transform="translate(622,307)"/>
</svg>
